<svg xmlns="http://www.w3.org/2000/svg" xmlns:xlink="http://www.w3.org/1999/xlink" width="500" zoomAndPan="magnify" viewBox="0 0 375 374.999991" height="500" preserveAspectRatio="xMidYMid meet" version="1.0"><defs><g/><clipPath id="e8bca90992"><path d="M 45.914062 46.050781 L 312.226562 46.050781 L 312.226562 312.363281 L 45.914062 312.363281 Z M 45.914062 46.050781 " clip-rule="nonzero"/></clipPath><clipPath id="749e01f8b5"><path d="M 69.914062 46.050781 L 288.226562 46.050781 C 301.480469 46.050781 312.226562 56.796875 312.226562 70.050781 L 312.226562 288.363281 C 312.226562 301.617188 301.480469 312.363281 288.226562 312.363281 L 69.914062 312.363281 C 56.660156 312.363281 45.914062 301.617188 45.914062 288.363281 L 45.914062 70.050781 C 45.914062 56.796875 56.660156 46.050781 69.914062 46.050781 Z M 69.914062 46.050781 " clip-rule="nonzero"/></clipPath><clipPath id="11c02ae659"><path d="M 0.914062 0.0507812 L 267.226562 0.0507812 L 267.226562 266.363281 L 0.914062 266.363281 Z M 0.914062 0.0507812 " clip-rule="nonzero"/></clipPath><clipPath id="c59ca5826e"><path d="M 24.914062 0.0507812 L 243.226562 0.0507812 C 256.480469 0.0507812 267.226562 10.796875 267.226562 24.050781 L 267.226562 242.363281 C 267.226562 255.617188 256.480469 266.363281 243.226562 266.363281 L 24.914062 266.363281 C 11.660156 266.363281 0.914062 255.617188 0.914062 242.363281 L 0.914062 24.050781 C 0.914062 10.796875 11.660156 0.0507812 24.914062 0.0507812 Z M 24.914062 0.0507812 " clip-rule="nonzero"/></clipPath><clipPath id="952552a8be"><rect x="0" width="268" y="0" height="267"/></clipPath><clipPath id="a2bb91056d"><path d="M 62.773438 27.027344 L 329.085938 27.027344 L 329.085938 293.335938 L 62.773438 293.335938 Z M 62.773438 27.027344 " clip-rule="nonzero"/></clipPath><clipPath id="3c88e1c015"><path d="M 86.773438 27.027344 L 305.085938 27.027344 C 318.339844 27.027344 329.085938 37.769531 329.085938 51.027344 L 329.085938 269.335938 C 329.085938 282.59375 318.339844 293.335938 305.085938 293.335938 L 86.773438 293.335938 C 73.519531 293.335938 62.773438 282.59375 62.773438 269.335938 L 62.773438 51.027344 C 62.773438 37.769531 73.519531 27.027344 86.773438 27.027344 Z M 86.773438 27.027344 " clip-rule="nonzero"/></clipPath><clipPath id="3594fb7f3f"><path d="M 0.773438 0.0273438 L 267.085938 0.0273438 L 267.085938 266.335938 L 0.773438 266.335938 Z M 0.773438 0.0273438 " clip-rule="nonzero"/></clipPath><clipPath id="aa47431bb4"><path d="M 24.773438 0.0273438 L 243.085938 0.0273438 C 256.339844 0.0273438 267.085938 10.769531 267.085938 24.027344 L 267.085938 242.335938 C 267.085938 255.59375 256.339844 266.335938 243.085938 266.335938 L 24.773438 266.335938 C 11.519531 266.335938 0.773438 255.59375 0.773438 242.335938 L 0.773438 24.027344 C 0.773438 10.769531 11.519531 0.0273438 24.773438 0.0273438 Z M 24.773438 0.0273438 " clip-rule="nonzero"/></clipPath><clipPath id="22d1327ae9"><rect x="0" width="268" y="0" height="267"/></clipPath><clipPath id="3bdabe4d88"><rect x="0" width="118" y="0" height="181"/></clipPath><clipPath id="0b6d97a265"><path d="M 174.476562 204.703125 L 221.898438 204.703125 L 221.898438 264.542969 L 174.476562 264.542969 Z M 174.476562 204.703125 " clip-rule="nonzero"/></clipPath><clipPath id="e9d88d8840"><path d="M 0.476562 0.703125 L 47.898438 0.703125 L 47.898438 60.542969 L 0.476562 60.542969 Z M 0.476562 0.703125 " clip-rule="nonzero"/></clipPath><clipPath id="d387e9e3d0"><rect x="0" width="48" y="0" height="61"/></clipPath><clipPath id="4466c2a103"><rect x="0" width="200" y="0" height="307"/></clipPath><clipPath id="72700d267e"><path d="M 216.027344 243.519531 L 223.109375 243.519531 L 223.109375 260.917969 L 216.027344 260.917969 Z M 216.027344 243.519531 " clip-rule="nonzero"/></clipPath><clipPath id="81b50b2a30"><path d="M 0.0273438 0.519531 L 7.109375 0.519531 L 7.109375 17.917969 L 0.0273438 17.917969 Z M 0.0273438 0.519531 " clip-rule="nonzero"/></clipPath><clipPath id="1a17103838"><rect x="0" width="8" y="0" height="18"/></clipPath><clipPath id="c62b48d815"><rect x="0" width="195" y="0" height="25"/></clipPath></defs><rect x="-37.5" width="450" fill="#ffffff" y="-37.499999" height="449.999989" fill-opacity="1"/><rect x="-37.5" width="450" fill="#ffffff" y="-37.499999" height="449.999989" fill-opacity="1"/><g clip-path="url(#e8bca90992)"><g clip-path="url(#749e01f8b5)"><g transform="matrix(1, 0, 0, 1, 45, 46)"><g clip-path="url(#952552a8be)"><g clip-path="url(#11c02ae659)"><g clip-path="url(#c59ca5826e)"><path fill="#000000" d="M 0.914062 0.0507812 L 267.226562 0.0507812 L 267.226562 266.363281 L 0.914062 266.363281 Z M 0.914062 0.0507812 " fill-opacity="1" fill-rule="nonzero"/></g></g></g></g></g></g><g clip-path="url(#a2bb91056d)"><g clip-path="url(#3c88e1c015)"><g transform="matrix(1, 0, 0, 1, 62, 27)"><g clip-path="url(#22d1327ae9)"><g clip-path="url(#3594fb7f3f)"><g clip-path="url(#aa47431bb4)"><path fill="#00bf63" d="M 0.773438 0.0273438 L 267.085938 0.0273438 L 267.085938 266.335938 L 0.773438 266.335938 Z M 0.773438 0.0273438 " fill-opacity="1" fill-rule="nonzero"/></g></g></g></g></g></g><g transform="matrix(1, 0, 0, 1, 171, 126)"><g clip-path="url(#3bdabe4d88)"><g fill="#ffffff" fill-opacity="1"><g transform="translate(117.463522, 31.248705)"><g><path d="M -50.203125 0 L -50.203125 77.6875 C -50.203125 80.582031 -49.15625 83.050781 -47.0625 85.09375 C -44.96875 87.132812 -42.476562 88.15625 -39.59375 88.15625 L -5.96875 88.15625 L -5.96875 104.578125 L -39.59375 104.578125 C -44.675781 104.578125 -49.234375 103.378906 -53.265625 100.984375 C -57.296875 98.597656 -60.503906 95.390625 -62.890625 91.359375 C -65.285156 87.328125 -66.484375 82.769531 -66.484375 77.6875 L -66.484375 0 Z M -66.484375 88.15625 L -66.484375 104.578125 L -110.5625 104.578125 L -110.5625 88.15625 Z M -66.484375 88.15625 "/></g></g></g></g></g><g clip-path="url(#0b6d97a265)"><g transform="matrix(1, 0, 0, 1, 174, 204)"><g clip-path="url(#d387e9e3d0)"><g clip-path="url(#e9d88d8840)"><path fill="#00bf63" d="M 0.476562 0.703125 L 47.898438 0.703125 L 47.898438 60.539062 L 0.476562 60.539062 Z M 0.476562 0.703125 " fill-opacity="1" fill-rule="nonzero"/></g></g></g></g><g transform="matrix(1, 0, 0, 1, 96, 6)"><g clip-path="url(#4466c2a103)"><g fill="#ffffff" fill-opacity="1"><g transform="translate(0.688201, 254.412926)"><g><path d="M 85.5 0 L 85.5 -132.3125 C 85.5 -137.226562 83.71875 -141.425781 80.15625 -144.90625 C 76.59375 -148.382812 72.351562 -150.125 67.4375 -150.125 L 10.171875 -150.125 L 10.171875 -178.125 L 67.4375 -178.125 C 76.082031 -178.125 83.835938 -176.085938 90.703125 -172.015625 C 97.578125 -167.941406 103.050781 -162.46875 107.125 -155.59375 C 111.195312 -148.726562 113.234375 -140.96875 113.234375 -132.3125 L 113.234375 0 Z M 113.234375 -150.125 L 113.234375 -178.125 L 188.296875 -178.125 L 188.296875 -150.125 Z M 113.234375 -150.125 "/></g></g></g></g></g><g clip-path="url(#72700d267e)"><g transform="matrix(1, 0, 0, 1, 216, 243)"><g clip-path="url(#1a17103838)"><g clip-path="url(#81b50b2a30)"><path fill="#00bf63" d="M 0.0273438 0.519531 L 7.109375 0.519531 L 7.109375 17.910156 L 0.0273438 17.910156 Z M 0.0273438 0.519531 " fill-opacity="1" fill-rule="nonzero"/></g></g></g></g><g transform="matrix(1, 0, 0, 1, 90, 327)"><g clip-path="url(#c62b48d815)"><g fill="#000000" fill-opacity="1"><g transform="translate(0.667275, 19.685259)"><g><path d="M 7.296875 -14.0625 L 8.15625 -14.0625 L 8.15625 -3.828125 C 8.15625 -2.890625 7.992188 -2.125 7.671875 -1.53125 C 7.347656 -0.945312 6.914062 -0.515625 6.375 -0.234375 C 5.832031 0.046875 5.226562 0.1875 4.5625 0.1875 C 3.875 0.1875 3.257812 0.0625 2.71875 -0.1875 C 2.175781 -0.445312 1.742188 -0.804688 1.421875 -1.265625 C 1.109375 -1.722656 0.953125 -2.253906 0.953125 -2.859375 L 1.8125 -2.859375 C 1.8125 -2.421875 1.929688 -2.03125 2.171875 -1.6875 C 2.410156 -1.351562 2.738281 -1.085938 3.15625 -0.890625 C 3.570312 -0.703125 4.039062 -0.609375 4.5625 -0.609375 C 5.0625 -0.609375 5.519531 -0.710938 5.9375 -0.921875 C 6.351562 -1.140625 6.679688 -1.484375 6.921875 -1.953125 C 7.171875 -2.421875 7.296875 -3.046875 7.296875 -3.828125 Z M 7.296875 -14.0625 "/></g></g></g><g fill="#000000" fill-opacity="1"><g transform="translate(10.450583, 19.685259)"><g><path d="M 2.03125 0 L 2.03125 -14.0625 L 9.859375 -14.0625 L 9.859375 -13.265625 L 2.890625 -13.265625 L 2.890625 -7.4375 L 9.4375 -7.4375 L 9.4375 -6.640625 L 2.890625 -6.640625 L 2.890625 -0.796875 L 10.015625 -0.796875 L 10.015625 0 Z M 2.03125 0 "/></g></g></g><g fill="#000000" fill-opacity="1"><g transform="translate(21.414022, 19.685259)"><g><path d="M 1.484375 0 L 0.578125 0 L 5.65625 -14.0625 L 6.640625 -14.0625 L 11.71875 0 L 10.8125 0 L 6.1875 -12.953125 L 6.109375 -12.953125 Z M 2.765625 -5.296875 L 9.53125 -5.296875 L 9.53125 -4.5 L 2.765625 -4.5 Z M 2.765625 -5.296875 "/></g></g></g><g fill="#000000" fill-opacity="1"><g transform="translate(33.303748, 19.685259)"><g><path d="M 2.03125 0 L 2.03125 -14.0625 L 6.359375 -14.0625 C 7.253906 -14.0625 8.019531 -13.875 8.65625 -13.5 C 9.289062 -13.132812 9.78125 -12.632812 10.125 -12 C 10.46875 -11.363281 10.640625 -10.640625 10.640625 -9.828125 C 10.640625 -9.023438 10.46875 -8.304688 10.125 -7.671875 C 9.78125 -7.035156 9.289062 -6.53125 8.65625 -6.15625 C 8.019531 -5.789062 7.257812 -5.609375 6.375 -5.609375 L 2.640625 -5.609375 L 2.640625 -6.40625 L 6.34375 -6.40625 C 7.070312 -6.40625 7.691406 -6.550781 8.203125 -6.84375 C 8.710938 -7.144531 9.101562 -7.550781 9.375 -8.0625 C 9.65625 -8.570312 9.796875 -9.160156 9.796875 -9.828125 C 9.796875 -10.492188 9.65625 -11.082031 9.375 -11.59375 C 9.101562 -12.113281 8.707031 -12.519531 8.1875 -12.8125 C 7.675781 -13.113281 7.0625 -13.265625 6.34375 -13.265625 L 2.890625 -13.265625 L 2.890625 0 Z M 2.03125 0 "/></g></g></g><g fill="#000000" fill-opacity="1"><g transform="translate(44.802387, 19.685259)"><g/></g></g><g fill="#000000" fill-opacity="1"><g transform="translate(49.830803, 19.685259)"><g><path d="M 1.09375 -13.265625 L 1.09375 -14.0625 L 10.953125 -14.0625 L 10.953125 -13.265625 L 6.453125 -13.265625 L 6.453125 0 L 5.59375 0 L 5.59375 -13.265625 Z M 1.09375 -13.265625 "/></g></g></g><g fill="#000000" fill-opacity="1"><g transform="translate(61.466666, 19.685259)"><g><path d="M 2.03125 0 L 2.03125 -14.0625 L 9.859375 -14.0625 L 9.859375 -13.265625 L 2.890625 -13.265625 L 2.890625 -7.4375 L 9.4375 -7.4375 L 9.4375 -6.640625 L 2.890625 -6.640625 L 2.890625 -0.796875 L 10.015625 -0.796875 L 10.015625 0 Z M 2.03125 0 "/></g></g></g><g fill="#000000" fill-opacity="1"><g transform="translate(72.430105, 19.685259)"><g><path d="M 12.734375 -9.65625 L 11.859375 -9.65625 C 11.765625 -10.132812 11.59375 -10.597656 11.34375 -11.046875 C 11.09375 -11.492188 10.769531 -11.894531 10.375 -12.25 C 9.976562 -12.613281 9.519531 -12.898438 9 -13.109375 C 8.476562 -13.316406 7.898438 -13.421875 7.265625 -13.421875 C 6.335938 -13.421875 5.488281 -13.175781 4.71875 -12.6875 C 3.945312 -12.195312 3.328125 -11.472656 2.859375 -10.515625 C 2.390625 -9.566406 2.15625 -8.40625 2.15625 -7.03125 C 2.15625 -5.644531 2.390625 -4.472656 2.859375 -3.515625 C 3.328125 -2.566406 3.945312 -1.847656 4.71875 -1.359375 C 5.488281 -0.867188 6.335938 -0.625 7.265625 -0.625 C 7.898438 -0.625 8.476562 -0.726562 9 -0.9375 C 9.519531 -1.144531 9.976562 -1.425781 10.375 -1.78125 C 10.769531 -2.144531 11.09375 -2.550781 11.34375 -3 C 11.59375 -3.445312 11.765625 -3.910156 11.859375 -4.390625 L 12.734375 -4.390625 C 12.640625 -3.828125 12.445312 -3.269531 12.15625 -2.71875 C 11.875 -2.175781 11.5 -1.679688 11.03125 -1.234375 C 10.570312 -0.796875 10.023438 -0.445312 9.390625 -0.1875 C 8.765625 0.0625 8.054688 0.1875 7.265625 0.1875 C 6.097656 0.1875 5.066406 -0.109375 4.171875 -0.703125 C 3.273438 -1.296875 2.570312 -2.132812 2.0625 -3.21875 C 1.5625 -4.3125 1.3125 -5.582031 1.3125 -7.03125 C 1.3125 -8.476562 1.5625 -9.742188 2.0625 -10.828125 C 2.570312 -11.910156 3.273438 -12.75 4.171875 -13.34375 C 5.066406 -13.945312 6.097656 -14.25 7.265625 -14.25 C 8.054688 -14.25 8.765625 -14.117188 9.390625 -13.859375 C 10.023438 -13.597656 10.570312 -13.25 11.03125 -12.8125 C 11.5 -12.375 11.875 -11.882812 12.15625 -11.34375 C 12.445312 -10.800781 12.640625 -10.238281 12.734375 -9.65625 Z M 12.734375 -9.65625 "/></g></g></g><g fill="#000000" fill-opacity="1"><g transform="translate(86.021435, 19.685259)"><g><path d="M 2.03125 0 L 2.03125 -14.0625 L 2.890625 -14.0625 L 2.890625 -7.4375 L 11.359375 -7.4375 L 11.359375 -14.0625 L 12.21875 -14.0625 L 12.21875 0 L 11.359375 0 L 11.359375 -6.640625 L 2.890625 -6.640625 L 2.890625 0 Z M 2.03125 0 "/></g></g></g><g fill="#000000" fill-opacity="1"><g transform="translate(99.859773, 19.685259)"><g><path d="M 12.765625 -14.0625 L 12.765625 0 L 11.9375 0 L 2.96875 -12.5 L 2.890625 -12.5 L 2.890625 0 L 2.03125 0 L 2.03125 -14.0625 L 2.875 -14.0625 L 11.84375 -1.546875 L 11.921875 -1.546875 L 11.921875 -14.0625 Z M 12.765625 -14.0625 "/></g></g></g><g fill="#000000" fill-opacity="1"><g transform="translate(114.253876, 19.685259)"><g><path d="M 13.21875 -7.03125 C 13.21875 -5.582031 12.960938 -4.316406 12.453125 -3.234375 C 11.953125 -2.148438 11.253906 -1.304688 10.359375 -0.703125 C 9.460938 -0.109375 8.429688 0.1875 7.265625 0.1875 C 6.097656 0.1875 5.066406 -0.109375 4.171875 -0.703125 C 3.273438 -1.304688 2.570312 -2.148438 2.0625 -3.234375 C 1.5625 -4.316406 1.3125 -5.582031 1.3125 -7.03125 C 1.3125 -8.476562 1.5625 -9.738281 2.0625 -10.8125 C 2.570312 -11.894531 3.273438 -12.738281 4.171875 -13.34375 C 5.066406 -13.945312 6.097656 -14.25 7.265625 -14.25 C 8.429688 -14.25 9.460938 -13.945312 10.359375 -13.34375 C 11.253906 -12.75 11.953125 -11.910156 12.453125 -10.828125 C 12.960938 -9.742188 13.21875 -8.476562 13.21875 -7.03125 Z M 12.375 -7.03125 C 12.375 -8.332031 12.15625 -9.460938 11.71875 -10.421875 C 11.28125 -11.378906 10.675781 -12.117188 9.90625 -12.640625 C 9.144531 -13.160156 8.265625 -13.421875 7.265625 -13.421875 C 6.273438 -13.421875 5.394531 -13.160156 4.625 -12.640625 C 3.851562 -12.117188 3.25 -11.378906 2.8125 -10.421875 C 2.375 -9.460938 2.15625 -8.332031 2.15625 -7.03125 C 2.15625 -5.726562 2.367188 -4.597656 2.796875 -3.640625 C 3.234375 -2.679688 3.835938 -1.9375 4.609375 -1.40625 C 5.378906 -0.882812 6.265625 -0.625 7.265625 -0.625 C 8.265625 -0.625 9.144531 -0.882812 9.90625 -1.40625 C 10.675781 -1.9375 11.28125 -2.679688 11.71875 -3.640625 C 12.15625 -4.597656 12.375 -5.726562 12.375 -7.03125 Z M 12.375 -7.03125 "/></g></g></g><g fill="#000000" fill-opacity="1"><g transform="translate(128.373534, 19.685259)"><g><path d="M 2.03125 0 L 2.03125 -14.0625 L 2.890625 -14.0625 L 2.890625 -0.796875 L 9.75 -0.796875 L 9.75 0 Z M 2.03125 0 "/></g></g></g><g fill="#000000" fill-opacity="1"><g transform="translate(138.836101, 19.685259)"><g><path d="M 13.21875 -7.03125 C 13.21875 -5.582031 12.960938 -4.316406 12.453125 -3.234375 C 11.953125 -2.148438 11.253906 -1.304688 10.359375 -0.703125 C 9.460938 -0.109375 8.429688 0.1875 7.265625 0.1875 C 6.097656 0.1875 5.066406 -0.109375 4.171875 -0.703125 C 3.273438 -1.304688 2.570312 -2.148438 2.0625 -3.234375 C 1.5625 -4.316406 1.3125 -5.582031 1.3125 -7.03125 C 1.3125 -8.476562 1.5625 -9.738281 2.0625 -10.8125 C 2.570312 -11.894531 3.273438 -12.738281 4.171875 -13.34375 C 5.066406 -13.945312 6.097656 -14.25 7.265625 -14.25 C 8.429688 -14.25 9.460938 -13.945312 10.359375 -13.34375 C 11.253906 -12.75 11.953125 -11.910156 12.453125 -10.828125 C 12.960938 -9.742188 13.21875 -8.476562 13.21875 -7.03125 Z M 12.375 -7.03125 C 12.375 -8.332031 12.15625 -9.460938 11.71875 -10.421875 C 11.28125 -11.378906 10.675781 -12.117188 9.90625 -12.640625 C 9.144531 -13.160156 8.265625 -13.421875 7.265625 -13.421875 C 6.273438 -13.421875 5.394531 -13.160156 4.625 -12.640625 C 3.851562 -12.117188 3.25 -11.378906 2.8125 -10.421875 C 2.375 -9.460938 2.15625 -8.332031 2.15625 -7.03125 C 2.15625 -5.726562 2.367188 -4.597656 2.796875 -3.640625 C 3.234375 -2.679688 3.835938 -1.9375 4.609375 -1.40625 C 5.378906 -0.882812 6.265625 -0.625 7.265625 -0.625 C 8.265625 -0.625 9.144531 -0.882812 9.90625 -1.40625 C 10.675781 -1.9375 11.28125 -2.679688 11.71875 -3.640625 C 12.15625 -4.597656 12.375 -5.726562 12.375 -7.03125 Z M 12.375 -7.03125 "/></g></g></g><g fill="#000000" fill-opacity="1"><g transform="translate(152.955758, 19.685259)"><g><path d="M 11.875 -9.65625 C 11.769531 -10.132812 11.59375 -10.597656 11.34375 -11.046875 C 11.09375 -11.492188 10.769531 -11.894531 10.375 -12.25 C 9.988281 -12.613281 9.53125 -12.898438 9 -13.109375 C 8.476562 -13.316406 7.894531 -13.421875 7.25 -13.421875 C 6.257812 -13.421875 5.378906 -13.160156 4.609375 -12.640625 C 3.835938 -12.117188 3.234375 -11.378906 2.796875 -10.421875 C 2.367188 -9.460938 2.15625 -8.332031 2.15625 -7.03125 C 2.15625 -5.726562 2.367188 -4.597656 2.796875 -3.640625 C 3.234375 -2.679688 3.835938 -1.9375 4.609375 -1.40625 C 5.390625 -0.882812 6.296875 -0.625 7.328125 -0.625 C 8.242188 -0.625 9.054688 -0.835938 9.765625 -1.265625 C 10.484375 -1.691406 11.039062 -2.300781 11.4375 -3.09375 C 11.832031 -3.882812 12.023438 -4.832031 12.015625 -5.9375 L 12.3125 -5.796875 L 7.546875 -5.796875 L 7.546875 -6.59375 L 12.859375 -6.59375 L 12.859375 -5.796875 C 12.859375 -4.554688 12.617188 -3.488281 12.140625 -2.59375 C 11.671875 -1.695312 11.015625 -1.007812 10.171875 -0.53125 C 9.335938 -0.0507812 8.390625 0.1875 7.328125 0.1875 C 6.117188 0.1875 5.0625 -0.109375 4.15625 -0.703125 C 3.257812 -1.304688 2.5625 -2.148438 2.0625 -3.234375 C 1.5625 -4.316406 1.3125 -5.582031 1.3125 -7.03125 C 1.3125 -8.113281 1.453125 -9.097656 1.734375 -9.984375 C 2.023438 -10.878906 2.429688 -11.640625 2.953125 -12.265625 C 3.484375 -12.898438 4.113281 -13.390625 4.84375 -13.734375 C 5.570312 -14.078125 6.375 -14.25 7.25 -14.25 C 8.039062 -14.25 8.753906 -14.113281 9.390625 -13.84375 C 10.023438 -13.582031 10.578125 -13.234375 11.046875 -12.796875 C 11.515625 -12.359375 11.890625 -11.867188 12.171875 -11.328125 C 12.460938 -10.785156 12.660156 -10.226562 12.765625 -9.65625 Z M 11.875 -9.65625 "/></g></g></g><g fill="#000000" fill-opacity="1"><g transform="translate(166.848989, 19.685259)"><g><path d="M 2.890625 -14.0625 L 2.890625 0 L 2.03125 0 L 2.03125 -14.0625 Z M 2.890625 -14.0625 "/></g></g></g><g fill="#000000" fill-opacity="1"><g transform="translate(171.362806, 19.685259)"><g><path d="M 2.03125 0 L 2.03125 -14.0625 L 9.859375 -14.0625 L 9.859375 -13.265625 L 2.890625 -13.265625 L 2.890625 -7.4375 L 9.4375 -7.4375 L 9.4375 -6.640625 L 2.890625 -6.640625 L 2.890625 -0.796875 L 10.015625 -0.796875 L 10.015625 0 Z M 2.03125 0 "/></g></g></g><g fill="#000000" fill-opacity="1"><g transform="translate(182.326245, 19.685259)"><g><path d="M 9.609375 -10.546875 C 9.535156 -11.421875 9.175781 -12.125 8.53125 -12.65625 C 7.894531 -13.195312 7.070312 -13.46875 6.0625 -13.46875 C 5.382812 -13.46875 4.78125 -13.34375 4.25 -13.09375 C 3.71875 -12.84375 3.300781 -12.5 3 -12.0625 C 2.695312 -11.632812 2.546875 -11.132812 2.546875 -10.5625 C 2.546875 -10.207031 2.613281 -9.882812 2.75 -9.59375 C 2.894531 -9.300781 3.09375 -9.039062 3.34375 -8.8125 C 3.601562 -8.582031 3.910156 -8.382812 4.265625 -8.21875 C 4.617188 -8.050781 5.003906 -7.90625 5.421875 -7.78125 L 6.96875 -7.328125 C 7.488281 -7.160156 7.972656 -6.972656 8.421875 -6.765625 C 8.867188 -6.554688 9.257812 -6.304688 9.59375 -6.015625 C 9.925781 -5.722656 10.179688 -5.378906 10.359375 -4.984375 C 10.546875 -4.597656 10.640625 -4.15625 10.640625 -3.65625 C 10.640625 -2.914062 10.445312 -2.25 10.0625 -1.65625 C 9.6875 -1.070312 9.144531 -0.613281 8.4375 -0.28125 C 7.738281 0.0507812 6.914062 0.21875 5.96875 0.21875 C 5.0625 0.21875 4.269531 0.0664062 3.59375 -0.234375 C 2.925781 -0.535156 2.394531 -0.957031 2 -1.5 C 1.613281 -2.050781 1.398438 -2.6875 1.359375 -3.40625 L 2.234375 -3.40625 C 2.273438 -2.820312 2.457031 -2.316406 2.78125 -1.890625 C 3.113281 -1.472656 3.550781 -1.148438 4.09375 -0.921875 C 4.644531 -0.691406 5.269531 -0.578125 5.96875 -0.578125 C 6.71875 -0.578125 7.378906 -0.707031 7.953125 -0.96875 C 8.535156 -1.226562 8.988281 -1.585938 9.3125 -2.046875 C 9.632812 -2.503906 9.796875 -3.039062 9.796875 -3.65625 C 9.796875 -4.15625 9.675781 -4.578125 9.4375 -4.921875 C 9.207031 -5.273438 8.863281 -5.578125 8.40625 -5.828125 C 7.957031 -6.085938 7.394531 -6.320312 6.71875 -6.53125 L 5.078125 -7.015625 C 3.984375 -7.347656 3.144531 -7.800781 2.5625 -8.375 C 1.988281 -8.957031 1.703125 -9.679688 1.703125 -10.546875 C 1.703125 -11.265625 1.894531 -11.90625 2.28125 -12.46875 C 2.664062 -13.03125 3.1875 -13.46875 3.84375 -13.78125 C 4.507812 -14.101562 5.257812 -14.265625 6.09375 -14.265625 C 6.925781 -14.265625 7.660156 -14.101562 8.296875 -13.78125 C 8.941406 -13.457031 9.453125 -13.015625 9.828125 -12.453125 C 10.203125 -11.898438 10.410156 -11.265625 10.453125 -10.546875 Z M 9.609375 -10.546875 "/></g></g></g></g></g></svg>